<?xml version="1.0" encoding="utf-8" ?>
<svg xmlns="http://www.w3.org/2000/svg" xmlns:xlink="http://www.w3.org/1999/xlink" width="1024" height="1023">
	<path fill="#070707" d="M195.228 206.966L280.021 206.966L280.021 230.499L213.936 230.499C213.3 237.095 213.904 244.126 213.913 250.779L213.952 319.669C213.967 335.54 217.003 355.284 210.259 370.209C182.428 417.686 118.805 366.456 153.683 330.459C163.929 319.885 175.745 319.931 189.508 319.75L189.508 206.966C191.413 206.932 193.322 206.963 195.228 206.966Z"/>
	<path fill="#070707" d="M812.189 206.966L858.043 206.955C865.814 206.943 873.739 206.445 881.482 206.966L881.482 230.499L838.245 230.474C831.259 230.465 822.87 229.585 816.081 231.027C814.509 232.692 815.463 311.665 815.463 319.164C815.461 342.505 821.346 362.402 804.849 379.833C770.903 410.887 725.211 359.95 755.741 329.799C766.437 319.236 777.107 319.588 791.196 319.75L791.286 318.71C792.289 307.628 791.18 295.927 791.177 284.753L791.196 206.966L812.189 206.966Z"/>
	<path fill="#070707" d="M291.534 720.231L315.003 720.231L315.003 848.245C332.994 848.74 351.141 848.25 369.151 848.249L631.678 848.247C657.497 848.248 683.352 848.574 709.165 848.245L709.165 722.009L732.997 722.009C732.618 729.901 732.791 737.732 732.997 745.625L732.997 871.294C729.252 871.74 725.067 871.38 721.281 871.361L327.378 871.291C315.466 871.287 303.429 870.84 291.534 871.294C291.159 854.405 291.518 837.438 291.52 820.538L291.534 720.231Z"/>
	<path fill="#070707" d="M578.807 520.995C603.157 519.615 627.983 521.021 652.388 520.989C670.708 520.966 693.578 519.757 711.484 521.717C770.517 528.18 818.952 573.951 832.616 630.991C836.763 648.301 836.272 665.44 836.257 683.064L836.24 871.294C828.279 871.391 820.091 870.437 812.189 871.294L812.212 682.261C812.23 667.005 813.028 651.639 809.538 636.664C797.157 583.539 750.261 545.784 695.625 545.078L588.868 545.078C564.803 557.589 535.622 599.504 511.511 616.327C505.156 609.501 497.964 603.279 491.202 596.85L460.67 567.414C452.911 560.004 444.931 552.808 437.487 545.078L364.772 545.07C333.345 545.07 308.147 542.21 278.628 556.041C221.406 582.853 211.831 630.066 211.862 685.556L211.877 871.294C203.823 871.06 195.797 871.187 187.742 871.294L187.721 686.996C187.74 665.545 187.44 644.88 192.997 623.962C208.964 563.857 260.09 526.872 320.118 520.995L445.269 520.995C461.035 530.93 495.31 568.036 511.511 583.133C528.577 569.726 547.06 549.144 563.467 534.055C568.153 529.747 573.301 524.16 578.807 520.995Z"/>
	<path fill="#070707" d="M503.574 131.273C573.482 127.753 635.384 178.524 643.341 248.59C645.241 265.327 644.099 285.952 644.085 303.029C644.046 353.483 647.734 381.953 614.025 424.005C590.519 453.328 556.213 468.906 519.623 472.962C449.873 478.931 387.741 420.964 380.678 353.159C376.769 315.645 377.788 239.043 392.331 207.471C412.904 162.811 454.809 136.139 503.574 131.273ZM404.003 270.239L403.272 270.774C408.152 329.144 390.776 379.134 442.644 423.093C479.5 454.329 534.606 457.581 573.787 429.029C578.99 425.237 583.771 420.896 588.868 416.966C616.707 380.455 620.029 367.336 620.019 320.124L620.001 270.239L404.003 270.239ZM503.574 155.014C444.7 161.311 420.287 195.875 404.003 246.815L521.375 246.815L620.001 246.815C617.781 239.265 615.997 231.372 613.1 224.06C595.525 179.693 551.031 151.8 503.574 155.014Z"/>
	<path fill="#070707" d="M487.848 370.209C501.521 370.048 525.809 368.789 538.871 370.542C553.402 372.493 552.774 391.685 538.625 393.984L504.373 393.973C497.425 393.988 487.305 395.802 481.134 391.736C471.027 385.079 477.193 371.852 487.848 370.209Z"/>
</svg>
