<?xml version="1.0" encoding="utf-8" ?>
<svg xmlns="http://www.w3.org/2000/svg" xmlns:xlink="http://www.w3.org/1999/xlink" width="1024" height="1023">
	<path fill="#010101" d="M149.103 167.503C163.027 166.979 177.121 167.5 191.069 167.502L840.739 167.501C853.09 167.498 865.688 166.935 878.011 167.503C880.156 169.826 881.862 172.428 883.632 175.038L883.63 757.71C883.631 782.131 884.34 806.744 883.632 831.141C880.744 833.706 878.106 835.695 874.405 837.008C864.015 837.444 853.397 837.015 842.985 837.014L199.892 837.007C192.719 837.007 150.072 839.084 145.843 835.454C141.128 831.407 140.953 827.847 140.907 821.833L140.911 250.918C140.91 232.839 133.444 174.527 149.103 167.503ZM163.658 189.352L163.668 456.069C163.677 467.359 164.004 478.71 163.658 489.99C164.246 502.354 163.632 514.941 163.628 527.336L163.658 602.977L163.658 815.195L271.201 815.195C271.545 808.857 271.224 802.355 271.222 795.997L271.201 641.513L293.832 641.513L293.832 815.195L841.503 815.162C847.945 815.094 854.447 814.433 860.859 815.195C860.405 797.044 860.846 778.768 860.849 760.606L860.861 344.122C860.861 292.559 861.5 240.907 860.859 189.352L356.783 189.351C335.82 189.35 314.785 188.946 293.832 189.352L293.805 340.399C293.721 348.1 293.049 355.492 293.832 363.196C286.302 362.985 278.739 363.284 271.201 363.196C270.116 305.364 272.828 246.87 271.201 189.352C259.374 188.895 247.351 189.328 235.508 189.331L163.658 189.352Z"/>
	<path fill="#010101" d="M229.87 538.978L342.794 538.978C342.669 546.25 342.642 553.493 342.794 560.765L229.87 560.765L229.87 538.978Z"/>
	<path fill="#010101" d="M229.87 443.658L342.794 443.658L342.794 465.511L229.87 465.511L229.87 443.658Z"/>
	<path fill="#010101" d="M565.98 703.007L681.245 703.007C681.107 710.225 681.141 717.426 681.245 724.644C668.445 725.13 655.435 724.662 642.612 724.659L565.98 724.644C565.355 717.577 565.947 710.122 565.98 703.007Z"/>
	<path fill="#010101" d="M615.654 276.745C785.506 267.999 882.238 477.678 761.484 603.19C728.827 637.135 680.267 660.527 632.876 661.501C528.336 667.685 439.741 582.938 433.171 480.059C426.226 371.322 509.01 283.472 615.654 276.745ZM612.903 298.498C571.056 304.38 536.637 317.021 505.338 347.538C395.554 454.582 475.558 647.271 632.876 639.002C725.607 636.603 796.066 553.737 792.94 462.447C789.751 369.34 706.63 289.837 612.903 298.498Z"/>
	<path fill="#010101" d="M619.172 345.01C678.556 344.316 728.425 385.232 743.131 442.243C744.114 446.051 747.31 462.353 745.443 465.511L723.634 465.511C720.282 409.524 675.116 367.448 619.172 367.548C618.721 360.137 619.188 352.453 619.172 345.01Z"/>
	<path fill="#010101" d="M619.172 418.272C687.386 412.116 697.313 513.978 627.551 520.695C562.127 525.3 550.584 426.883 619.172 418.272ZM621.389 439.656C581.395 447.056 588.336 502.247 627.551 498.721C667.575 492.913 657.161 434.646 621.389 439.656Z"/>
</svg>
