<?xml version="1.0" encoding="utf-8" ?>
<svg xmlns="http://www.w3.org/2000/svg" xmlns:xlink="http://www.w3.org/1999/xlink" width="1024" height="1023">
	<path fill="#050505" d="M783.779 274.484C790.836 275.593 799.265 274.5 806.499 274.484L806.499 571.953L752.165 571.953L730.895 571.953L730.895 548.484C742.955 549.771 771.37 549.166 783.779 548.484C784.422 541.505 783.819 533.981 783.806 526.946L783.754 294.242C783.715 287.907 782.897 280.702 783.779 274.484Z"/>
	<path fill="#050505" d="M217.009 274.484C225.632 274.456 240.51 270.632 240.469 278.967L240.475 445.275C240.475 452.099 240.776 459.039 240.469 465.847C241.009 493.348 240.436 520.97 240.469 548.484C257.501 548.824 274.601 548.435 291.642 548.484C291.813 556.294 291.654 564.14 291.642 571.953C266.871 572.591 241.798 572.181 217.009 571.953L217.009 274.484Z"/>
	<path fill="#050505" d="M655.663 666.645C670.709 687.151 681.993 679.496 647.453 700.904C610.852 723.588 567.261 738.252 524.007 739.311C523.693 752.583 523.987 765.935 523.99 779.213L524.007 856.488C545.232 856.099 566.529 856.488 587.763 856.488L715.441 856.489C734.434 856.49 753.511 856.925 772.492 856.488C772.742 864.418 772.505 872.423 772.492 880.361L321.676 880.361L251.503 880.361L251.503 856.488L500.036 856.488L500.036 739.311C451.443 734.937 407.281 723.603 366.863 694.564C347.233 680.461 350.881 686.421 367.964 666.645C399.502 686.778 416.025 698.199 454.53 708.174C517.832 724.574 585.876 713.197 640.2 677.018C645.374 673.572 650.295 669.797 655.663 666.645Z"/>
	<path fill="#050505" d="M510.572 123.833C587.879 122.172 657.231 178.056 674.962 252.528C679.538 271.747 679.075 290.616 679.075 310.178L679.076 478.967C678.47 570.187 606.188 647.727 513.384 646.994C422.864 651.038 345.099 570.009 344.381 480.577L344.354 313.439C344.349 298.138 344.134 282.837 346.226 267.638C357.301 187.188 429.471 124.341 510.572 123.833ZM502.034 147.506C423.42 155.197 365.141 220.028 367.964 299.153C397.923 299.509 427.923 299.148 457.887 299.153C458.052 307.221 457.856 315.296 457.887 323.366L367.964 323.366L367.964 417.999L457.887 417.999L457.887 441.778L367.964 441.778L367.918 473.473C367.907 479.8 367.637 486.205 368.14 492.515C374.602 573.614 445.784 625.789 524.007 623.495C568.537 615.722 603.108 600.107 630.453 561.321C657.627 522.777 655.706 486.397 655.663 441.778C631.475 439.234 589.87 441.498 564.768 441.778C564.939 433.834 565.069 425.94 564.768 417.999L655.663 417.999L655.663 323.366L564.768 323.366C564.288 315.353 564.481 307.174 564.768 299.153L625.667 299.173C635.575 299.188 645.799 299.865 655.663 299.153C660.567 210.552 589.261 144.308 502.034 147.506Z"/>
</svg>
